<?xml version="1.0" encoding="utf-8"?>
<!-- Generator: Adobe Illustrator 25.4.1, SVG Export Plug-In . SVG Version: 6.00 Build 0)  -->
<svg version="1.1" id="Слой_1" xmlns="http://www.w3.org/2000/svg" xmlns:xlink="http://www.w3.org/1999/xlink" x="0px" y="0px"
	 viewBox="0 0 64 64" style="enable-background:new 0 0 64 64;" xml:space="preserve">
<style type="text/css">
	.st0{fill:#FFFFFF;stroke:#FFFFFF;stroke-width:1.2663;stroke-miterlimit:10;}
</style>
<g>
	<path class="st0" d="M29.8,52.9V19.5c0-0.8-0.2-1.6-0.7-2.2c-1.9-2.6-7.5-8.9-18.2-8.3c-1.1,0.1-2,1-2,2.1l0,32.4
		c0,0.9,0.7,1.6,1.6,1.6C14.6,45,25,45.7,29.8,52.9z"/>
	<path class="st0" d="M4.6,16.3v28c0,0-0.1,4.9,4.2,4.5c0,0,14.6,0.2,17.5,5.8c0,0-9.2-2.8-20.1,0c0,0-5.3,1.8-5.3-1.8L1,19
		C1,19,0.8,15.4,4.6,16.3z"/>
	<path class="st0" d="M34.2,52.9V19.5c0-0.8,0.2-1.6,0.7-2.2c1.9-2.6,7.5-8.9,18.2-8.3c1.1,0.1,2,1,2,2.1l0,32.4
		c0,0.9-0.7,1.6-1.6,1.6C49.4,45,39,45.7,34.2,52.9z"/>
	<path class="st0" d="M59.4,16.3v28c0,0,0.1,4.9-4.2,4.5c0,0-14.6,0.2-17.5,5.8c0,0,9.2-2.8,20.1,0c0,0,5.3,1.8,5.3-1.8L63,19
		C63,19,63.2,15.4,59.4,16.3z"/>
</g>
</svg>
