<?xml version="1.0" encoding="utf-8"?>
<!-- Generator: Adobe Illustrator 25.4.1, SVG Export Plug-In . SVG Version: 6.00 Build 0)  -->
<svg version="1.1" id="Слой_1" xmlns="http://www.w3.org/2000/svg" xmlns:xlink="http://www.w3.org/1999/xlink" x="0px" y="0px"
	 viewBox="0 0 64 64" style="enable-background:new 0 0 64 64;" xml:space="preserve">
<style type="text/css">
	.st1{fill:none;stroke:#ffffff;stroke-width:1.666;stroke-linejoin:round;stroke-miterlimit:10;}
	.st2{fill:none;stroke:#ffffff;stroke-width:1.666;stroke-linecap:round;stroke-linejoin:round;stroke-miterlimit:10;}
</style>
<rect x="28.8" y="42.5" class="st1" width="7.7" height="4.5"/>
<path class="st1" d="M34.9,42.5c0,0,0.5-4.3,4.1-8.2l-4.9-13.2h-1.5"/>
<path class="st2" d="M28.5,37.8c-0.6-1.3-1.1-2.1-2.4-3.5l4.9-13.2h1.5v10"/>
<path class="st1" d="M29,38.4"/>
<path class="st2" d="M30.3,41.9c0,0,0.1-0.5-0.4-1.9"/>
<rect x="30.9" y="13.4" class="st2" width="3.5" height="3.4"/>
<ellipse class="st2" cx="32.6" cy="33.1" rx="1.8" ry="1.7"/>
<ellipse class="st2" cx="51.5" cy="15.1" rx="1.8" ry="1.7"/>
<path class="st2" d="M49.1,15.1H34.4c0,0,13.1,1.3,14.1,14.9"/>
<rect x="46.7" y="30" class="st2" width="3.5" height="3.4"/>
<path class="st2" d="M30.1,15.3L30.1,15.3c0,0-15.5-1.9-20.6,10.8c0,0-0.5,1.3-0.7,2.4c-0.2,1.1,1.3,1.6,1.9,0.6
	c0.1-0.2,0.2-0.5,0.4-0.8c0.2-0.4,0.4-0.8,0.7-1.1c0.3-0.3,0.7-0.4,0.9,0.2c0.1,0.3,0,0.7-0.1,1c-0.9,1.8-3.3,8.1-0.3,9.5
	c0,0,1.8,1,2.8-1.6c0-0.1,0-0.1,0-0.1c0.1-0.3,0.2-2,0.5-5.9c0.9-13.6,14.1-14.9,14.1-14.9l0,0"/>
<path class="st2" d="M22.6,21.6c0,0-3.4,3.5-3.8,6.2c-0.1,0.4,0,0.9,0.2,1.3c0.1,0.2,0.3,0.4,0.5,0.5c0.2,0.1,0.4,0.1,0.7,0
	c0.5-0.2,0.9-0.8,0.8-1.3C20.8,27.5,20.9,25.6,22.6,21.6z"/>
<polyline class="st2" points="29.8,47.5 29.2,50.6 36.4,50.6 35.8,47.5 "/>
</svg>
