<?xml version="1.0" encoding="utf-8"?>
<!-- Generator: Adobe Illustrator 25.4.1, SVG Export Plug-In . SVG Version: 6.00 Build 0)  -->
<svg version="1.1" id="Слой_1" xmlns="http://www.w3.org/2000/svg" xmlns:xlink="http://www.w3.org/1999/xlink" x="0px" y="0px"
	 viewBox="0 0 64 64" style="enable-background:new 0 0 64 64;" xml:space="preserve">
<style type="text/css">
	.st0{fill:none;stroke:#ffffff;stroke-width:1.2313;stroke-miterlimit:10;}
	.st1{fill:none;stroke:#ffffff;stroke-width:1.6667;stroke-miterlimit:10;}
</style>
<path class="st0" d="M52.3,29.4c-0.1,1.9-1.8,2.3-1.6,2.4c5.8,4.1,2.2,11.7-0.1,13.4c-0.4,0.3-0.7,0.8-0.7,1.4
	c-0.1,1.8-0.8,5.2-5.1,6.2c-0.4,0.1-0.8,0.3-1.1,0.7c-1.3,1.7-5.6,6.1-11.2,0c-0.3-0.3-0.5-0.8-0.5-1.3V11.6c0-0.1,0-0.2,0-0.2
	c0.4-3.1,2.2-4.2,4.9-4.4c2.4-0.2,5.2,0.4,6,3.1c0.2,0.8,0.9,1.3,1.7,1.3c1.9,0.1,4.7,0.9,4.6,5.1c0,0.6,0.3,1.2,0.8,1.6
	c0.8,0.5,1.8,1.4,2.3,2.5"/>
<path class="st1" d="M52.3,29.4c-0.1,1.9-1.8,2.3-1.6,2.4c5.8,4.1,2.2,11.7-0.1,13.4c-0.4,0.3-0.7,0.8-0.7,1.4
	c-0.1,1.8-0.8,5.2-5.1,6.2c-0.4,0.1-0.8,0.3-1.1,0.7c-1.3,1.7-5.6,6.1-11.2,0c-0.3-0.3-0.5-0.8-0.5-1.3V11.6c0-0.1,0-0.2,0-0.2
	c0.4-3.1,2.2-4.2,4.9-4.4c2.4-0.2,5.2,0.4,6,3.1c0.2,0.8,0.9,1.3,1.7,1.3c1.9,0.1,4.7,0.9,4.6,5.1c0,0.6,0.3,1.2,0.8,1.6
	c0.8,0.5,1.8,1.4,2.3,2.5"/>
<polyline class="st1" points="32.4,13.3 37.3,13.3 38.3,15.3 "/>
<polyline class="st1" points="38.3,29.5 40.1,25.8 42.9,25.8 "/>
<polyline class="st1" points="37.5,43.6 38.2,45.7 40.5,47.1 "/>
<line class="st1" x1="51.3" y1="38.2" x2="53.4" y2="38.2"/>
<circle class="st1" cx="44.8" cy="25.8" r="1.5"/>
<circle class="st1" cx="37.7" cy="31.1" r="1.5"/>
<circle class="st1" cx="38.9" cy="16.5" r="1.5"/>
<circle class="st1" cx="37.3" cy="42" r="1.5"/>
<circle class="st1" cx="41.8" cy="47.9" r="1.5"/>
<circle class="st1" cx="49.3" cy="38.2" r="1.5"/>
<path class="st0" d="M21.4,16.8"/>
<path class="st0" d="M14,16.8"/>
<path class="st0" d="M14,16.8"/>
<path class="st1" d="M14,15.3h6.3c0,0,1.8,0.3,0.9,1.6s-0.8,3.2,1.2,3.2c0,0,3.6-0.3,1.3-3.2c0,0-0.6-1.2,0.8-1.6h7.2"/>
<path class="st1" d="M24.4,31.3c0,0-2.2-0.3-1.3-1.6s0.8-3.2-1.2-3.2c0,0-3.6,0.3-1.3,3.2c0,0,0.6,1.2-0.8,1.6h-7.2"/>
<line class="st1" x1="31.7" y1="31.3" x2="24" y2="31.3"/>
<path class="st1" d="M11.6,42.7l0-2.7c0,0,0.3-1.8,1.6-0.9s3.2,0.8,3.2-1.2c0,0-0.3-3.6-3.2-1.3c0,0-1.2,0.6-1.6-0.8l-0.1-1.5l0-0.3
	c-0.4-1.9,1.9-2.3,1.7-2.4c-5.8-4.1-2.2-11.7,0.1-13.4c0.4-0.3,0.7-0.8,0.7-1.4c0.1-1.8,0.8-5.2,5.1-6.2c0.4-0.1,0.8-0.3,1.1-0.7
	c0.7-0.9,2.3-2.1,4.5-2.5C26.5,7,28.8,7,31.4,9.8c0.3,0.3,0.5,0.8,0.5,1.3v40.6c0,0.1,0,0.2,0,0.2c-0.4,3.1-2.2,4.8-4.9,5
	c-2.4,0.2-6.1-0.8-6.8-3.4c-0.2-0.8-0.8-1.4-1.6-1.4c-1.9-0.1-4-1.1-3.9-5.3c0-0.6-0.3-1.2-0.8-1.6C13.1,44.7,11.6,44.5,11.6,42.7z"
	/>
<path class="st1" d="M15.3,47.3l7.8,0.1c0,0,0.6-0.1-0.6,1.6c-0.9,1.3,0.2,3.1,2.1,3.2c0,0,3.6,0,1.4-3c0,0-0.8-1.4,0.5-1.8l5.3,0.1
	"/>
<path class="st0" d="M55.9,38.5"/>
<path class="st1" d="M53.4,22.8c0.4,1.4,0.2,2.5-0.3,3.5"/>
</svg>
