<?xml version="1.0" encoding="utf-8"?>
<!-- Generator: Adobe Illustrator 25.4.1, SVG Export Plug-In . SVG Version: 6.00 Build 0)  -->
<svg version="1.1" id="Слой_1" xmlns="http://www.w3.org/2000/svg" xmlns:xlink="http://www.w3.org/1999/xlink" x="0px" y="0px"
	 viewBox="0 0 64 64" style="enable-background:new 0 0 64 64;" xml:space="preserve">
<style type="text/css">
	.st1{fill:none;stroke:#ffffff;stroke-width:1.666;stroke-linejoin:round;stroke-miterlimit:10;}
</style>
<polygon class="st1" points="29,19.4 29,31.4 39.1,25.4 "/>
<path class="st1" d="M30.9,14.2c0,0,2.6-6.7,11-3.6c0,0,7.3,2.8,4.9,10.5c0,0,6.1,1.3,7.1,6.4c0.2,1.1,0.1,2.2-0.3,3.2
	c-0.6,1.6-1.9,3.8-4.9,4.7c-0.6,0.2-1.3,0.3-2,0.3c-3.9,0-20.8,0-27.3,0c-2.9,0-5.7-1.2-7.6-3.4c-0.1-0.1-0.2-0.2-0.2-0.3
	c-2.3-3-2.3-7.3,0.2-10.1c1.6-1.8,4.3-3.3,9-2.9C20.8,18.8,22.2,10.5,30.9,14.2z"/>
<polyline class="st1" points="23.1,35.7 23.1,42.5 17.6,42.5 "/>
<circle class="st1" cx="15.9" cy="42.5" r="2.1"/>
<line class="st1" x1="32.2" y1="35.7" x2="32.2" y2="52"/>
<circle class="st1" cx="32.2" cy="54.1" r="2.1"/>
<polyline class="st1" points="42,35.7 42,47.2 47.4,47.2 "/>
<circle class="st1" cx="49.8" cy="47.2" r="2.1"/>
</svg>
