<?xml version="1.0" encoding="utf-8"?>
<!-- Generator: Adobe Illustrator 25.4.1, SVG Export Plug-In . SVG Version: 6.00 Build 0)  -->
<svg version="1.1" id="Слой_1" xmlns="http://www.w3.org/2000/svg" xmlns:xlink="http://www.w3.org/1999/xlink" x="0px" y="0px"
	 viewBox="0 0 64 64" style="enable-background:new 0 0 64 64;" xml:space="preserve">
<style type="text/css">
	.st0{fill:none;stroke:#FFFFFF;stroke-width:2;stroke-miterlimit:10;}
	.st1{fill:none;stroke:#FFFFFF;stroke-width:2;stroke-linecap:round;stroke-linejoin:round;stroke-miterlimit:10;}
	.st2{fill:none;stroke:#FFFFFF;stroke-width:2;stroke-linecap:round;stroke-miterlimit:10;}
</style>
<g>
	<path class="st0" d="M49.1,57H14.9c-1.3,0-2.3-1-2.3-2.3V12.6c0-1.3,1-2.3,2.3-2.3h34.3c1.3,0,2.3,1,2.3,2.3v42.1
		C51.5,56,50.4,57,49.1,57z"/>
	<line class="st0" x1="13.1" y1="18.5" x2="50.9" y2="18.5"/>
	<line class="st1" x1="19" y1="7" x2="19" y2="13.2"/>
	<line class="st2" x1="27.5" y1="7" x2="27.5" y2="13.2"/>
	<line class="st2" x1="36" y1="7" x2="36" y2="13.2"/>
	<line class="st2" x1="44.4" y1="7.2" x2="44.4" y2="13.3"/>
	<line class="st2" x1="17.9" y1="25.3" x2="44.8" y2="25.3"/>
	<line class="st2" x1="17.9" y1="30.5" x2="35.4" y2="30.5"/>
	<line class="st2" x1="17.9" y1="35.9" x2="40.1" y2="35.9"/>
	<line class="st2" x1="17.9" y1="41" x2="42.1" y2="41"/>
</g>
</svg>
